<?xml version="1.0" encoding="utf-8"?>
<!-- Generator: Adobe Illustrator 16.0.0, SVG Export Plug-In . SVG Version: 6.00 Build 0)  -->
<!DOCTYPE svg PUBLIC "-//W3C//DTD SVG 1.1//EN" "http://www.w3.org/Graphics/SVG/1.1/DTD/svg11.dtd">
<svg version="1.1" id="Layer_1" xmlns="http://www.w3.org/2000/svg" xmlns:xlink="http://www.w3.org/1999/xlink" x="0px" y="0px"
	 width="14px" height="14px" viewBox="0 0 14 14" enable-background="new 0 0 14 14" xml:space="preserve">
<g>
	<path fill-rule="evenodd" clip-rule="evenodd" fill="none" d="M4.365,26.703c-3.937,0-7.872,0-11.804,0c0-4,0-8,0-11.996
		c3.937,0,7.872,0,11.804,0C4.365,18.707,4.365,22.707,4.365,26.703z M3.059,7.558C2.898,7.376,2.727,7.25,2.645,7.08
		C2.43,6.632,2.264,6.164,2.059,5.71C1.982,5.54,1.851,5.395,1.745,5.237c-0.115,0.17-0.299,0.327-0.332,0.512
		c-0.24,1.317,0.006,2.562,0.676,3.71C3.016,11.053,4.497,12,6.137,12.676c1.07,0.441,2.193,0.281,3.183-0.338
		c1.076-0.676,0.996-2.092-0.119-2.705C9.064,9.559,8.926,9.486,8.793,9.416C9.246,8.201,10.146,7.064,13,4.975
		c-0.656-1.313-1.773-2.142-3.02-2.819C8.787,1.506,7.508,1.132,6.182,1C5.643,3.444,4.445,5.509,3.059,7.558z"/>
	<path fill-rule="evenodd" clip-rule="evenodd" d="M3.059,7.558C4.445,5.509,5.643,3.444,6.182,1
		C7.508,1.132,8.787,1.506,9.98,2.155c1.246,0.678,2.363,1.506,3.02,2.819c-2.854,2.089-3.754,3.227-4.207,4.441
		c0.133,0.07,0.271,0.143,0.408,0.217c1.115,0.613,1.195,2.029,0.119,2.705c-0.99,0.619-2.113,0.779-3.183,0.338
		C4.497,12,3.016,11.053,2.088,9.459c-0.67-1.148-0.916-2.393-0.676-3.71c0.033-0.185,0.217-0.342,0.332-0.512
		C1.851,5.395,1.982,5.54,2.059,5.71C2.264,6.164,2.43,6.632,2.645,7.08C2.727,7.25,2.898,7.376,3.059,7.558z M2.61,8.523
		C2.592,9.055,2.823,9.391,3.059,9.707c0.871,1.168,2.096,1.824,3.425,2.32c0.116,0.043,0.25,0.057,0.376,0.059
		c0.3,0.006,0.421-0.152,0.292-0.424c-0.111-0.236-0.257-0.465-0.425-0.666c-0.653-0.775-1.454-1.361-2.382-1.768
		C3.795,8.988,3.235,8.777,2.61,8.523z M11.33,3.103C9.785,4.642,8.566,6.333,7.936,8.406c1.109-1.782,2.596-3.19,4.365-4.395
		C11.961,3.692,11.654,3.407,11.33,3.103z"/>
	<path fill-rule="evenodd" clip-rule="evenodd" fill="none" d="M2.61,8.523c0.625,0.254,1.186,0.465,1.735,0.705
		c0.928,0.406,1.729,0.992,2.382,1.768c0.168,0.201,0.314,0.43,0.425,0.666c0.129,0.271,0.008,0.43-0.292,0.424
		c-0.126-0.002-0.26-0.016-0.376-0.059c-1.329-0.496-2.554-1.152-3.425-2.32C2.823,9.391,2.592,9.055,2.61,8.523z"/>
	<path fill-rule="evenodd" clip-rule="evenodd" fill="#FFFFFF" d="M11.33,3.103c0.324,0.305,0.631,0.59,0.971,0.909
		c-1.77,1.204-3.256,2.613-4.365,4.395C8.566,6.333,9.785,4.642,11.33,3.103z"/>
</g>
</svg>
