<?xml version="1.0" standalone="no"?>
<!DOCTYPE svg PUBLIC "-//W3C//DTD SVG 20010904//EN"
 "http://www.w3.org/TR/2001/REC-SVG-20010904/DTD/svg10.dtd">
<svg version="1.0" xmlns="http://www.w3.org/2000/svg"
 width="498.000000pt" height="630.000000pt" viewBox="0 0 498.000000 630.000000"
 preserveAspectRatio="xMidYMid meet">
<metadata>
Created by potrace 1.10, written by Peter Selinger 2001-2011
</metadata>
<g transform="translate(0.000000,630.000000) scale(0.100000,-0.100000)"
fill="#af0000" stroke="none">
<path d="M3866 6053 c-1 -2 -703 -3 -1559 -3 -917 0 -1557 -4 -1557 -9 0 -12
33 -82 73 -156 38 -68 100 -184 176 -329 29 -54 59 -110 68 -123 35 -53 32
-53 -386 -55 -305 -2 -384 -5 -388 -15 -3 -7 0 -41 7 -75 7 -35 18 -97 25
-138 7 -41 15 -82 19 -90 3 -8 10 -42 15 -75 6 -33 17 -91 26 -130 8 -38 22
-105 30 -148 8 -43 17 -82 20 -86 3 -5 9 -35 14 -68 5 -32 19 -101 30 -153 12
-52 26 -115 31 -140 9 -50 25 -125 70 -340 17 -80 38 -179 47 -220 8 -41 21
-102 28 -135 44 -203 69 -322 85 -409 5 -26 13 -62 19 -80 5 -17 12 -49 16
-71 9 -58 34 -175 46 -213 6 -19 15 -57 20 -85 4 -29 15 -86 24 -127 31 -144
43 -206 59 -285 8 -44 25 -120 36 -170 12 -49 25 -110 30 -135 16 -80 39 -193
54 -260 7 -36 28 -135 46 -220 18 -85 38 -184 46 -220 8 -36 21 -101 30 -146
8 -44 19 -87 24 -95 8 -12 95 -14 580 -15 365 -1 575 -5 581 -11 6 -6 15 -113
20 -238 5 -124 11 -230 13 -233 2 -4 5 -86 7 -182 1 -96 5 -184 9 -194 6 -17
16 -19 101 -17 52 1 98 7 104 12 6 6 15 133 22 287 20 496 24 546 39 562 13
13 95 15 607 17 326 1 602 5 615 8 17 4 22 13 22 36 0 17 7 61 15 98 8 36 19
89 24 116 18 94 62 310 76 375 8 36 16 79 19 95 2 17 12 66 21 110 9 44 23
114 30 155 8 41 22 109 30 150 8 41 19 102 24 134 6 32 14 80 20 105 17 79 39
191 61 311 12 63 26 133 32 155 6 22 14 63 19 90 23 136 38 216 43 224 4 5 10
35 16 68 10 62 28 158 55 288 9 44 20 103 25 130 7 48 60 313 80 405 5 25 24
117 41 205 17 88 35 178 40 200 17 85 39 203 49 265 6 36 13 72 16 80 4 8 12
51 20 95 7 44 20 114 29 155 9 41 20 102 25 135 5 33 13 73 19 88 6 16 11 37
11 48 0 18 -11 19 -347 20 -192 0 -368 4 -393 7 -40 7 -45 10 -43 33 1 14 15
45 31 70 16 24 50 82 74 129 25 47 69 128 98 180 30 52 66 119 81 149 15 29
32 58 38 64 6 6 11 19 11 29 0 17 -14 18 -216 16 -118 -2 -216 -4 -218 -5z
m-2556 -162 c124 0 784 2 1467 5 1165 5 1243 5 1249 -11 7 -17 -25 -86 -138
-295 -92 -172 -178 -343 -174 -348 2 -2 186 -3 408 -2 222 0 412 -2 421 -6 21
-8 21 -36 2 -123 -26 -116 -47 -224 -55 -276 -9 -61 -55 -296 -75 -386 -8 -37
-15 -77 -15 -89 0 -12 -4 -29 -9 -39 -5 -9 -14 -46 -20 -82 -19 -116 -22 -133
-36 -199 -8 -36 -27 -126 -41 -200 -15 -74 -33 -166 -40 -205 -8 -38 -19 -99
-24 -135 -6 -36 -14 -78 -19 -95 -5 -16 -12 -50 -15 -75 -4 -25 -13 -74 -21
-110 -26 -121 -82 -408 -100 -510 -8 -41 -21 -106 -29 -145 -9 -38 -20 -95
-25 -125 -5 -30 -14 -75 -20 -100 -6 -25 -20 -94 -31 -155 -24 -127 -47 -243
-61 -300 -5 -22 -14 -69 -19 -105 -10 -61 -17 -101 -54 -280 -37 -185 -58
-275 -67 -292 -9 -17 -38 -18 -549 -18 l-539 0 -12 22 c-8 15 -10 53 -5 122
14 226 37 656 46 891 5 138 14 304 20 370 5 66 10 174 11 240 1 137 9 177 43
224 27 36 25 55 -9 83 -18 16 -44 18 -265 16 -265 -2 -290 -7 -290 -54 0 -14
12 -43 27 -67 27 -40 28 -48 34 -217 3 -96 11 -265 17 -375 34 -607 55 -1236
43 -1248 -11 -11 -898 -19 -970 -9 l-54 7 -17 65 c-10 36 -26 101 -35 145 -9
44 -23 107 -31 140 -8 33 -19 85 -24 115 -5 30 -17 87 -25 125 -9 39 -22 105
-29 147 -8 42 -17 81 -20 86 -3 5 -10 33 -15 63 -12 61 -32 161 -54 264 -9 39
-22 104 -31 145 -8 41 -22 107 -31 145 -9 39 -22 102 -31 140 -8 39 -22 102
-30 140 -54 243 -90 413 -119 560 -7 39 -21 99 -29 135 -9 36 -23 99 -31 140
-8 41 -21 104 -29 140 -7 36 -25 124 -40 195 -15 72 -33 157 -41 190 -7 33
-21 96 -30 140 -9 44 -21 98 -27 119 -5 21 -13 60 -18 85 -4 25 -22 111 -39
191 -18 80 -36 165 -40 190 -5 25 -16 80 -26 124 -12 53 -14 81 -7 88 7 7 155
10 436 9 415 -2 426 -2 426 17 0 11 -7 25 -15 32 -8 7 -15 21 -15 31 0 10 -4
20 -9 23 -5 3 -32 52 -61 108 -29 57 -65 126 -81 154 -62 113 -139 270 -139
285 0 24 12 31 45 25 16 -3 131 -5 255 -5z"/>
<path d="M2080 5680 c-41 -3 -65 -7 -52 -8 57 -5 62 -14 62 -127 0 -57 4 -106
9 -110 15 -9 19 23 17 118 -1 48 0 91 4 96 3 5 19 11 35 13 17 1 29 8 28 13
-2 13 -11 13 -103 5z"/>
<path d="M2543 5683 c-37 -7 -83 -71 -83 -115 0 -82 54 -138 133 -138 89 1
146 106 102 190 -30 59 -76 78 -152 63z m107 -33 c11 -11 20 -27 20 -35 0 -8
5 -15 10 -15 15 0 12 -57 -4 -88 -22 -44 -52 -64 -91 -64 -40 0 -67 20 -90 65
-20 39 -19 55 5 104 22 47 29 51 88 52 29 1 48 -5 62 -19z"/>
<path d="M1350 5560 c0 -87 3 -119 11 -114 8 4 10 30 7 75 -6 83 1 98 36 79
14 -7 26 -19 26 -25 0 -7 8 -21 18 -33 9 -12 30 -40 46 -62 15 -23 33 -39 40
-37 14 5 16 228 1 225 -5 -2 -10 -34 -10 -73 0 -90 -9 -105 -41 -70 -13 14
-24 30 -24 34 0 4 -9 16 -20 26 -11 10 -20 24 -20 32 0 7 -3 13 -8 13 -4 0
-12 10 -17 22 -6 13 -18 24 -27 26 -16 3 -18 -8 -18 -118z"/>
<path d="M1782 5653 c-19 -50 -23 -73 -14 -73 6 0 13 11 16 25 6 22 36 37 36
17 0 -5 7 -17 15 -28 14 -18 14 -16 8 16 -12 72 -42 93 -61 43z"/>
<path d="M2847 5568 c2 -62 3 -117 3 -122 0 -5 3 -6 6 -3 4 4 6 40 5 82 -2 61
1 76 14 81 17 7 46 -18 58 -48 7 -19 27 -25 27 -9 0 5 -6 16 -13 23 -7 7 -26
34 -41 61 -16 26 -35 47 -44 47 -15 0 -17 -14 -15 -112z"/>
<path d="M3020 5595 c0 -67 -3 -85 -14 -85 -8 0 -18 5 -21 10 -3 6 -11 10 -16
10 -20 0 42 -89 62 -90 10 0 19 132 12 188 -9 81 -23 62 -23 -33z"/>
<path d="M3266 5664 c-9 -23 -8 -24 17 -33 27 -10 40 5 26 31 -12 22 -35 23
-43 2z"/>
<path d="M2331 5561 c-1 -65 3 -112 9 -116 6 -4 10 34 10 109 0 64 -4 116 -9
116 -5 0 -10 -49 -10 -109z"/>
<path d="M3520 5650 c0 -11 5 -20 10 -20 6 0 10 9 10 20 0 11 -4 20 -10 20 -5
0 -10 -9 -10 -20z"/>
<path d="M3236 5585 c-4 -16 -14 -45 -23 -63 -8 -18 -12 -40 -10 -50 3 -13 6
-11 15 10 6 14 20 29 32 33 15 5 18 10 11 18 -5 7 -11 28 -13 47 l-4 35 -8
-30z"/>
<path d="M3327 5594 c-4 -4 -7 -17 -7 -29 0 -11 -5 -26 -11 -32 -9 -9 -5 -14
14 -18 18 -5 28 -16 32 -36 7 -29 25 -41 25 -15 0 24 -46 137 -53 130z"/>
<path d="M3521 5551 c-1 -36 2 -52 9 -45 6 6 6 26 1 54 l-9 45 -1 -54z"/>
<path d="M1739 5547 c-16 -36 -2 -50 31 -32 14 8 19 14 12 15 -7 0 -16 10 -21
23 -9 22 -9 22 -22 -6z"/>
<path d="M1842 5540 c-10 -17 -9 -22 13 -36 14 -9 25 -25 25 -35 0 -10 5 -21
11 -24 20 -13 23 6 7 38 -9 18 -19 42 -23 55 -8 27 -16 28 -33 2z"/>
<path d="M1718 5484 c-5 -4 -8 -16 -8 -28 0 -14 3 -17 11 -9 6 6 9 19 7 28 -1
9 -6 13 -10 9z"/>
<path d="M3520 5478 c0 -16 19 -38 33 -38 4 0 7 10 5 22 -3 25 -38 39 -38 16z"/>
<path d="M2856 5066 c-19 -12 -41 -36 -50 -57 -18 -40 -21 -73 -6 -64 6 3 10
13 10 22 0 23 48 83 75 93 72 27 135 -27 135 -116 -1 -56 -22 -89 -64 -100
-32 -8 -34 -24 -3 -24 24 1 67 32 67 48 0 6 6 12 13 15 17 5 14 105 -6 140
-31 58 -110 78 -171 43z"/>
<path d="M3834 5078 c-3 -4 4 -8 15 -8 49 0 51 -6 51 -121 0 -66 4 -109 10
-109 6 0 10 41 10 103 0 115 6 127 59 127 19 0 31 3 27 7 -10 10 -166 11 -172
1z"/>
<path d="M1120 5070 c0 -5 7 -10 15 -10 8 0 15 5 15 10 0 6 -7 10 -15 10 -8 0
-15 -4 -15 -10z"/>
<path d="M1701 5065 c-83 -46 -80 -205 5 -241 54 -23 60 -16 16 16 -53 38 -65
63 -60 120 4 37 12 54 39 79 29 28 38 32 68 26 49 -9 80 -43 87 -97 7 -52 -16
-114 -47 -123 -10 -4 -19 -11 -19 -16 0 -17 29 -9 57 17 24 22 28 35 31 92 3
59 1 70 -20 95 -13 15 -29 27 -36 27 -7 0 -12 5 -12 10 0 14 -80 11 -109 -5z"/>
<path d="M1993 5068 c-4 -7 -8 -64 -8 -126 0 -95 2 -112 15 -110 11 2 14 13
12 36 -2 22 3 40 14 53 17 18 16 20 -6 44 -20 21 -22 29 -14 57 9 32 11 33 69
36 67 3 85 -9 85 -60 0 -21 -6 -29 -25 -34 -30 -7 -33 -29 -5 -44 12 -7 22
-25 26 -50 9 -58 27 -50 20 8 -8 61 -8 79 0 125 10 58 -16 77 -105 77 -45 0
-73 -4 -78 -12z"/>
<path d="M2530 5055 c-20 -21 -22 -28 -12 -50 7 -14 19 -28 27 -30 8 -3 23 -8
33 -12 9 -3 37 -13 62 -22 34 -12 46 -22 48 -39 4 -25 -23 -62 -45 -62 -7 0
-13 -4 -13 -10 0 -18 27 -10 55 16 52 48 22 109 -58 120 -57 8 -91 36 -83 69
5 18 15 26 40 31 42 7 76 -2 76 -22 0 -8 7 -14 15 -14 8 0 15 5 15 11 0 22
-36 38 -86 39 -41 0 -55 -5 -74 -25z"/>
<path d="M3141 5049 c-28 -28 -31 -36 -31 -96 0 -60 2 -67 33 -98 35 -35 32
-34 128 -26 13 2 49 43 49 56 0 24 -19 17 -26 -9 -10 -42 -88 -49 -131 -12
-25 21 -28 30 -28 87 0 55 4 68 25 89 20 20 35 25 72 25 25 0 44 3 41 8 -2 4
-26 7 -53 7 -41 0 -53 -5 -79 -31z"/>
<path d="M3447 5073 c-11 -10 -8 -146 3 -163 7 -10 10 14 10 78 0 92 -1 98
-13 85z"/>
<path d="M3586 5063 c-8 -28 -10 -208 -2 -221 5 -8 35 -11 89 -10 53 1 65 3
32 5 -78 5 -95 12 -106 40 -7 19 -6 31 6 49 13 20 24 24 70 24 30 0 55 4 55 9
0 4 -22 6 -49 3 -40 -3 -52 -1 -70 17 -25 25 -26 39 -5 66 11 15 31 22 77 26
l62 6 -77 1 c-65 2 -77 -1 -82 -15z"/>
<path d="M4088 5073 c6 -2 12 -10 12 -16 1 -16 59 -85 60 -71 0 18 -59 94 -73
93 -9 0 -9 -2 1 -6z"/>
<path d="M4246 5053 c-9 -16 -18 -36 -22 -45 -3 -9 -20 -21 -36 -27 -22 -8
-29 -15 -24 -27 3 -8 6 -18 6 -20 0 -2 7 -4 15 -4 9 0 20 12 26 27 6 15 14 30
18 33 9 6 51 75 51 84 0 16 -20 3 -34 -21z"/>
<path d="M1346 5062 c-8 -13 -7 -223 1 -235 5 -7 10 28 13 78 4 75 8 90 23 93
10 2 17 -3 17 -13 0 -8 6 -18 14 -21 8 -3 17 -16 20 -30 6 -23 26 -34 26 -14
0 11 -34 63 -57 88 -7 7 -13 20 -13 27 0 16 -36 39 -44 27z"/>
<path d="M1032 5033 c-12 -15 -22 -39 -22 -53 1 -24 1 -24 15 -6 8 11 15 26
15 33 0 7 9 17 20 23 11 6 20 15 20 20 0 19 -27 10 -48 -17z"/>
<path d="M1160 5054 c0 -3 14 -17 30 -31 27 -22 30 -31 30 -79 0 -47 -4 -59
-32 -89 -24 -27 -39 -35 -65 -35 -18 0 -33 -4 -33 -10 0 -5 11 -10 25 -10 72
0 138 74 131 148 -4 38 -28 88 -51 104 -12 9 -35 10 -35 2z"/>
<path d="M1520 4981 l0 -80 -30 -3 -30 -3 26 -38 c14 -21 31 -36 37 -34 16 5
22 237 7 237 -6 0 -10 -31 -10 -79z"/>
<path d="M3286 5051 c-3 -5 1 -14 9 -21 12 -10 15 -10 15 3 0 19 -16 31 -24
18z"/>
<path d="M711 4940 c0 -117 13 -155 23 -67 8 67 8 83 0 135 -11 78 -24 43 -23
-68z"/>
<path d="M890 5012 c0 -31 -5 -41 -22 -49 l-23 -10 23 -12 c19 -10 22 -20 22
-66 0 -30 4 -55 9 -55 6 0 10 50 10 115 0 66 -4 115 -10 115 -5 0 -9 -17 -9
-38z"/>
<path d="M1004 4908 c8 -38 31 -77 52 -85 27 -10 28 6 2 30 -14 13 -29 38 -33
55 -9 43 -30 42 -21 0z"/>
<path d="M2800 4904 c0 -21 63 -84 84 -84 9 0 16 5 16 10 0 6 -6 10 -13 10
-16 0 -57 41 -57 57 0 6 -7 13 -15 17 -9 3 -15 0 -15 -10z"/>
<path d="M2522 4879 c4 -30 51 -64 75 -54 15 6 12 9 -16 19 -19 7 -38 22 -42
34 -11 28 -21 28 -17 1z"/>
<path d="M3446 4868 c-3 -13 -1 -27 4 -32 7 -7 10 1 10 22 0 37 -5 41 -14 10z"/>
<path d="M2455 4548 c-51 -54 -95 -124 -95 -156 -1 -20 -20 -47 -39 -53 -7 -3
-21 -30 -31 -60 -9 -31 -35 -80 -57 -110 -23 -30 -44 -65 -48 -79 -4 -14 -12
-30 -17 -37 -5 -6 -12 -45 -15 -86 -5 -64 -3 -81 17 -120 14 -27 31 -47 44
-50 32 -8 512 -8 530 -1 22 8 50 65 66 132 14 58 6 178 -15 227 -7 17 -17 42
-23 57 -11 27 -117 118 -138 118 -6 0 -36 25 -67 55 -65 64 -79 108 -53 170
19 45 19 45 4 45 -6 0 -35 -24 -63 -52z"/>
<path d="M3730 4386 c-47 -25 -117 -56 -129 -56 -6 0 -11 -4 -11 -10 0 -5 -7
-10 -16 -10 -9 0 -28 -6 -42 -14 -56 -29 -162 -76 -171 -76 -6 0 -27 -9 -48
-19 -21 -11 -65 -32 -98 -47 -94 -43 -128 -65 -117 -76 7 -7 20 -5 39 5 70 36
219 107 226 107 4 0 35 13 69 29 35 16 70 31 78 35 15 6 25 11 65 34 11 7 30
16 42 22 89 38 153 72 153 80 0 13 -10 12 -40 -4z"/>
<path d="M1345 4331 c-6 -11 33 -26 43 -16 4 3 0 10 -8 15 -19 12 -27 12 -35
1z"/>
<path d="M1410 4300 c0 -10 197 -110 218 -110 9 0 51 -19 92 -42 8 -4 22 -11
30 -14 8 -4 52 -25 98 -47 45 -22 86 -37 90 -33 10 10 -36 46 -58 46 -10 0
-23 7 -30 15 -7 8 -18 15 -25 15 -12 0 -52 18 -95 42 -8 4 -22 11 -30 14 -8 3
-42 19 -75 34 -98 46 -132 60 -148 60 -9 0 -17 4 -19 9 -5 13 -48 24 -48 11z"/>
<path d="M1800 4301 c0 -5 8 -12 18 -15 9 -4 32 -20 51 -36 19 -17 37 -28 40
-25 3 3 -7 16 -21 28 -71 58 -88 68 -88 48z"/>
<path d="M3090 4205 c-7 -9 -10 -18 -7 -21 7 -8 47 14 47 26 0 15 -26 12 -40
-5z"/>
<path d="M1960 4182 c0 -5 7 -13 16 -16 10 -4 14 -1 12 6 -5 15 -28 23 -28 10z"/>
<path d="M3660 4140 c0 -6 11 -8 28 -4 39 10 40 14 4 14 -18 0 -32 -5 -32 -10z"/>
<path d="M3558 4123 c-10 -2 -18 -9 -18 -15 0 -13 69 -3 84 12 10 10 -31 12
-66 3z"/>
<path d="M3410 4089 c-14 -6 -47 -15 -75 -20 -75 -13 -158 -38 -169 -49 -18
-18 56 -11 149 16 50 14 112 29 139 34 68 13 83 30 26 29 -25 0 -56 -5 -70
-10z"/>
<path d="M1740 4000 c0 -6 24 -10 53 -9 41 1 47 3 27 9 -36 12 -80 12 -80 0z"/>
<path d="M1870 3970 c0 -5 12 -10 26 -10 14 0 23 4 19 10 -3 6 -15 10 -26 10
-10 0 -19 -4 -19 -10z"/>
<path d="M3340 3900 c25 -4 74 -4 110 0 59 7 55 7 -45 7 -82 1 -99 -1 -65 -7z"/>
<path d="M1670 3881 c0 -5 26 -12 58 -16 31 -3 78 -8 103 -11 48 -6 75 10 48
27 -19 12 -209 11 -209 0z"/>
<path d="M3182 3778 c5 -15 84 -38 133 -38 22 0 56 -5 75 -11 36 -11 182 -27
300 -34 l65 -4 -75 12 c-41 7 -80 16 -87 20 -6 4 -49 11 -95 17 -45 5 -103 14
-128 19 -25 6 -71 10 -102 11 -31 0 -60 5 -63 10 -9 14 -28 13 -23 -2z"/>
<path d="M1750 3751 c-8 -5 -42 -11 -74 -14 -32 -3 -64 -11 -69 -16 -6 -6 -27
-11 -46 -11 -45 0 -81 -10 -81 -21 0 -14 67 -10 107 6 19 8 54 15 77 15 22 0
54 7 70 15 15 8 38 15 50 15 11 0 28 5 36 10 19 12 -48 13 -70 1z"/>
<path d="M2277 3732 c-104 -2 -129 -5 -134 -18 -8 -22 7 -33 63 -47 65 -16 71
-44 20 -96 -86 -88 -88 -240 -3 -313 l32 -27 247 -1 c243 0 248 0 268 22 39
43 70 123 70 184 0 56 -1 58 -55 112 -77 77 -73 97 28 123 48 12 58 27 33 48
-15 13 -300 19 -569 13z"/>
<path d="M1353 3663 c15 -2 37 -2 50 0 12 2 0 4 -28 4 -27 0 -38 -2 -22 -4z"/>
<path d="M1835 3630 c-3 -5 -14 -10 -24 -10 -10 0 -24 -7 -31 -15 -7 -8 -21
-15 -31 -15 -9 0 -24 -6 -31 -13 -7 -8 -26 -17 -41 -21 -15 -3 -27 -11 -27
-16 0 -15 23 -12 46 5 10 8 26 15 35 15 17 0 127 54 143 70 7 7 3 10 -11 10
-12 0 -25 -4 -28 -10z"/>
<path d="M3150 3631 c0 -12 57 -41 81 -41 10 0 20 -4 23 -9 8 -12 265 -141
282 -141 24 0 15 15 -18 31 -18 9 -77 39 -131 67 -53 29 -106 52 -117 52 -11
0 -20 4 -20 9 0 4 -19 16 -43 25 -49 19 -57 19 -57 7z"/>
<path d="M1583 3523 c-7 -2 -13 -9 -13 -14 0 -14 34 -11 56 6 18 14 18 14 -6
14 -14 0 -31 -3 -37 -6z"/>
<path d="M1533 3492 c-13 -2 -23 -8 -23 -13 0 -9 37 -3 49 7 8 7 -4 10 -26 6z"/>
<path d="M3140 3457 c42 -39 156 -127 188 -145 65 -36 -39 64 -133 129 -27 19
-51 37 -53 42 -2 4 -11 7 -20 7 -12 0 -7 -10 18 -33z"/>
<path d="M3622 3399 c2 -7 10 -15 17 -17 8 -3 12 1 9 9 -2 7 -10 15 -17 17 -8
3 -12 -1 -9 -9z"/>
<path d="M3050 3357 c0 -7 8 -20 18 -29 9 -8 27 -29 39 -45 12 -16 33 -41 47
-56 13 -14 26 -32 29 -39 2 -7 8 -10 12 -6 10 10 -12 42 -69 103 -25 28 -49
58 -52 68 -6 20 -24 23 -24 4z"/>
<path d="M1873 3280 c-13 -15 -23 -33 -23 -39 0 -6 -4 -11 -10 -11 -5 0 -10
-5 -10 -10 0 -17 34 10 58 44 36 53 23 66 -15 16z"/>
<path d="M3380 3272 c0 -10 33 -42 43 -42 3 0 20 -14 38 -31 17 -17 34 -28 37
-24 7 6 -96 105 -109 105 -5 0 -9 -4 -9 -8z"/>
<path d="M2960 3251 c0 -13 40 -81 48 -81 4 0 18 -17 32 -38 27 -40 38 -55 58
-77 6 -7 12 -17 12 -21 0 -4 11 -17 25 -30 14 -13 25 -22 25 -20 0 11 -33 66
-40 66 -4 0 -11 8 -14 18 -7 18 -17 36 -75 127 -34 54 -71 83 -71 56z"/>
<path d="M1785 3174 c-22 -34 -15 -39 13 -9 12 13 18 26 13 29 -5 3 -16 -6
-26 -20z"/>
<path d="M2913 3095 c14 -76 27 -125 36 -142 5 -10 12 -30 16 -45 6 -32 25
-38 25 -9 0 10 -7 41 -15 67 -8 27 -17 65 -20 85 -3 20 -15 45 -27 55 -21 19
-21 19 -15 -11z"/>
<path d="M2028 3073 c-9 -10 -20 -39 -23 -63 -6 -42 -5 -44 9 -26 9 11 16 27
16 36 0 9 5 21 11 27 6 6 9 19 7 28 -3 16 -4 16 -20 -2z"/>
<path d="M4005 3054 c-9 -15 -37 -47 -61 -72 -24 -24 -61 -65 -81 -90 -21 -25
-51 -60 -68 -77 -29 -30 -95 -105 -336 -380 -62 -71 -119 -136 -126 -143 -7
-8 -11 -17 -9 -21 3 -4 97 -6 210 -4 l206 3 5 -23 c4 -13 1 -50 -4 -82 -31
-170 -41 -218 -52 -231 -23 -28 -33 -19 -95 87 -28 49 -45 58 -105 58 -32 0
-61 -4 -63 -8 -2 -3 20 -51 51 -106 30 -55 71 -129 91 -165 19 -36 46 -82 59
-102 12 -21 23 -41 23 -45 0 -3 6 -14 14 -22 8 -9 27 -40 43 -70 37 -68 53
-76 53 -24 0 21 9 79 19 128 11 50 27 135 36 190 9 55 21 118 27 140 6 22 14
63 18 90 5 28 16 91 25 140 9 50 19 105 22 122 l5 32 -148 3 c-172 3 -181 9
-117 75 21 21 64 69 96 106 36 42 66 67 79 67 19 0 19 -4 13 -60 l-7 -60 51 0
c60 0 63 4 81 110 7 41 18 102 26 135 17 75 33 155 44 220 4 28 11 62 15 78
10 36 -16 37 -40 1z"/>
<path d="M1044 2988 c9 -61 34 -178 62 -293 8 -33 19 -85 24 -115 6 -30 17
-82 25 -115 7 -33 21 -96 30 -140 9 -44 21 -96 26 -115 5 -19 14 -55 19 -80
37 -179 52 -258 68 -350 13 -74 22 -105 32 -105 12 0 39 36 56 75 11 24 197
335 204 340 4 3 9 12 13 20 4 8 14 25 23 37 15 20 13 24 -22 63 -59 65 -68 67
-94 18 -41 -79 -85 -139 -100 -136 -15 3 -28 44 -70 233 -13 55 -27 108 -32
118 -12 23 -1 57 19 57 9 0 41 -27 70 -60 30 -33 60 -60 66 -60 12 1 87 91 87
105 0 9 -152 177 -324 358 -83 87 -155 165 -159 173 -17 30 -30 14 -23 -28z"/>
<path d="M1982 2920 c0 -19 2 -27 5 -17 2 9 2 25 0 35 -3 9 -5 1 -5 -18z"/>
<path d="M2850 2158 c-1 -2 -3 -115 -5 -253 -3 -137 -7 -319 -10 -402 l-5
-153 331 0 c182 0 329 3 327 8 -24 55 -123 239 -132 245 -6 4 -38 6 -71 5 -53
-3 -60 -5 -57 -22 2 -10 13 -31 24 -47 41 -55 9 -69 -151 -69 -111 0 -147 15
-137 55 3 13 11 155 16 316 8 217 7 295 -1 305 -7 9 -33 14 -70 14 -33 0 -59
-1 -59 -2z"/>
<path d="M1893 2073 c-22 -43 -58 -114 -81 -158 -48 -95 -92 -189 -92 -198 0
-4 73 -7 163 -7 113 0 167 -4 175 -12 17 -17 16 -222 0 -236 -13 -10 -239 -15
-270 -6 -23 7 -23 45 -2 85 24 47 13 59 -53 59 -32 0 -64 -4 -70 -8 -22 -14
-132 -240 -120 -245 7 -2 158 -2 337 -1 l325 2 -3 118 c-2 66 -7 137 -12 159
-5 22 -10 73 -10 113 0 50 -4 73 -12 74 -7 1 -60 2 -118 2 -105 1 -105 1 -108
27 -2 14 11 55 27 92 33 74 50 84 125 73 58 -9 68 4 58 80 l-7 59 -106 3 -106
3 -40 -78z"/>
</g>
</svg>
