<?xml version="1.0" encoding="utf-8"?>
<!-- Generator: Adobe Illustrator 16.0.0, SVG Export Plug-In . SVG Version: 6.00 Build 0)  -->
<!DOCTYPE svg PUBLIC "-//W3C//DTD SVG 1.1//EN" "http://www.w3.org/Graphics/SVG/1.1/DTD/svg11.dtd">
<svg version="1.1" id="Layer_1" xmlns="http://www.w3.org/2000/svg" xmlns:xlink="http://www.w3.org/1999/xlink" x="0px" y="0px"
	 width="498px" height="630px" viewBox="0 0 498 630" enable-background="new 0 0 498 630" xml:space="preserve">
<g transform="translate(0.000000,630.000000) scale(0.100000,-0.100000)">
	<path fill="#AF0000" d="M3865.996,6052.998C3865,6051,3162.998,6050,2307.002,6050C1390,6050,750,6046,750,6041
		c0-12.002,32.998-82.002,72.998-156.001c38.003-67.998,100-183.999,176.001-328.999c28.999-53.999,58.999-110,68.003-123.003
		c35-52.998,31.997-52.998-386.001-55c-305-1.997-383.999-5-388.003-15c-2.998-6.997,0-40.996,7.002-75
		c7.002-35,17.998-96.997,25-137.998s15-82.002,18.999-90c3.003-7.998,10-42.002,15-75c6.001-32.998,17.002-91.001,26.001-130
		c7.998-37.998,22.002-105,30-147.998c7.998-43.003,17.002-82.002,20-86.001c2.998-5,8.999-35,13.999-68.003
		c5-31.997,18.999-100.996,30-152.998C491.001,4347.998,505,4285,510,4260c8.999-50,25-125,70-340
		c17.002-80,37.998-178.999,47.002-220c7.998-41.001,20.996-102.002,27.998-135c43.999-202.998,68.999-322.002,85-408.999
		c5-26.001,12.998-61.997,18.999-80.005c5-16.992,12.002-48.994,16.001-70.996c8.999-57.998,33.999-175,46.001-212.998
		c6.001-19.004,15-57.002,20-85c3.999-29.004,15-86.006,23.999-127.002c31.001-144.004,42.998-205.996,58.999-285
		c8.003-44.004,25-120,36.001-170c12.002-49.004,25-110,30-135c16.001-80,38.999-192.998,53.999-260
		c7.002-35.996,28.003-135,46.001-220s37.998-184.004,46.001-220c7.998-35.996,21.001-100.996,30-145.996
		c7.998-44.004,18.999-87.002,23.999-95c7.998-12.002,95-14.004,580-15c365-1.006,575-5,581.001-11.006
		c6.001-5.996,15-112.998,20-237.998c5-124.004,11.001-230,12.998-232.998c2.002-4.004,5-86.006,7.002-182.002
		c1.001-95.996,5-184.004,8.999-194.004c6.001-16.992,16.001-18.994,100.996-16.992c52.002,0.996,98.008,6.992,104.004,11.992
		c5.996,6.006,15,133.008,22.002,287.002c20,496.006,23.994,546.006,38.994,562.002c13.008,12.998,95,15,607.002,17.002
		c326.006,0.996,602.002,5,615,7.998c17.002,4.004,22.002,12.998,22.002,35.996c0,17.002,7.002,61.006,15,98.008
		c7.998,35.996,19.004,88.994,24.004,115.996c17.998,94.004,61.992,310,75.996,375c7.998,35.996,15.996,79.004,19.004,95
		c1.992,17.002,11.992,65.996,20.996,110s22.998,114.004,30,155c7.998,40.996,22.002,109.004,30,150s19.004,102.002,24.004,134.004
		c5.996,31.992,13.994,80,20,105C4185.996,2497.998,4207.998,2610,4230,2730c12.002,62.998,25.996,132.998,32.002,155
		c5.996,22.002,13.994,62.998,18.994,90c23.008,135.996,38.008,216.001,43.008,223.999c3.994,5,10,35,15.996,68.003
		c10,61.997,27.998,157.998,55,287.998c9.004,43.999,20,102.998,25,130c7.002,47.998,60,312.998,80,405
		c5,25,24.004,117.002,40.996,205c17.002,87.998,35,177.998,40,200c17.002,85,39.004,202.998,49.004,265
		c5.996,36.001,12.998,72.002,15.996,80c4.004,7.998,12.002,51.001,20,95c7.002,43.999,20,113.999,29.004,155s20,102.002,25,135
		s12.998,72.998,19.004,87.998C4745,5328.999,4750,5350,4750,5361c0,17.998-10.996,18.999-347.002,20
		C4210.996,5381,4035,5385,4010,5387.998c-40,7.002-45,10-42.998,33.003c0.996,13.999,15,45,30.996,70
		c16.006,23.999,50,81.997,74.004,128.999c25,47.002,68.994,127.998,97.998,180c30,52.002,65.996,118.999,80.996,148.999
		c15,28.999,32.002,58.003,38.008,63.999c5.996,6.001,10.996,19.004,10.996,29.004c0,16.997-14.004,17.998-215.996,15.996
		C3965.996,6056,3867.998,6053.999,3865.996,6052.998z M1310,5891c123.999,0,783.999,1.997,1467.002,5
		c1165,5,1242.998,5,1248.994-11.001c7.002-17.002-25-86.001-137.998-295c-92.002-172.002-177.998-342.998-173.994-347.998
		c1.992-2.002,185.996-3.003,407.998-2.002c222.002,0,412.002-2.002,420.996-6.001c21.006-7.998,21.006-36.001,2.002-122.998
		c-25.996-116.001-47.002-223.999-55-276.001c-9.004-61.001-55-296.001-75-386.001c-7.998-36.997-15-76.997-15-88.999
		s-4.004-28.999-9.004-38.999c-5-8.999-13.994-46.001-20-82.002C4352.001,4122.998,4349.003,4106,4335,4040
		c-7.998-36.001-27.002-126.001-40.996-200c-15-73.999-33.008-166.001-40-205c-8.008-37.998-19.004-98.999-24.004-135
		c-5.996-36.001-14.004-77.998-19.004-95c-5-16.001-11.992-50-15-75c-3.994-25-12.998-73.999-20.996-110
		c-25.996-120.996-82.002-407.998-100-510c-7.998-40.996-20.996-105.996-29.004-145c-8.994-37.998-20-95-25-125s-13.994-75-20-100
		c-5.996-25-20-94.004-30.996-155c-24.004-127.002-47.002-242.998-60.996-300c-5-22.002-14.004-69.004-19.004-105
		c-10-60.996-17.002-100.996-54.004-280c-36.992-185-57.998-275-66.992-292.002C3760,1190.996,3730.996,1190,3220,1190h-539.004
		l-11.992,22.002c-8.008,15-10,52.998-5,122.002C2677.998,1560,2700.996,1990,2710,2225c5,137.998,14.004,304.004,20,370
		c5,65.996,10,174.004,10.996,240c1.006,137.002,9.004,177.002,43.008,224.004c26.992,35.996,25,55-9.004,82.998
		c-17.998,15.996-44.004,17.998-265,15.996c-265-1.997-290-6.997-290-53.994c0-14.004,12.002-43.008,27.002-67.002
		c26.997-40,27.998-47.998,33.999-217.002c2.998-95.996,11.001-265,16.997-375c34.004-607.002,55-1235.996,43.003-1247.998
		c-11.001-11.006-898.003-19.004-970-9.004l-53.999,7.002L1300,1260c-10,35.996-26.001,100.996-35,145s-22.998,107.002-31.001,140
		c-7.998,32.998-18.999,85-23.999,115s-17.002,87.002-25,125c-8.999,39.004-22.002,105-28.999,147.002
		c-8.003,42.002-17.002,80.996-20,85.996c-3.003,5-10,32.998-15,62.998c-12.002,61.006-32.002,161.006-53.999,264.004
		c-9.004,39.004-22.002,104.004-31.001,145c-8.003,40.996-22.002,107.002-31.001,145c-8.999,39.004-22.002,102.002-31.001,140
		c-7.998,39.004-21.997,102.002-30,140c-53.999,242.998-90,412.998-118.999,560c-7.002,38.999-21.001,98.999-28.999,135
		c-8.999,36.001-23.003,98.999-31.001,140s-21.001,103.999-28.999,140c-7.002,36.001-25,123.999-40,195
		c-15,72.002-33.003,157.002-41.001,190c-7.002,32.998-21.001,96.001-30,140s-21.001,97.998-27.002,118.999
		c-5,21.001-12.998,60-17.998,85c-3.999,25-22.002,111.001-38.999,191.001c-18.003,80-36.001,165-40,190
		c-5,25-16.001,80-26.001,123.999c-12.002,53.003-13.999,81.001-7.002,88.003c7.002,6.997,155,10,436.001,8.999
		c415-2.002,426.001-2.002,426.001,16.997c0,11.001-7.002,25-15,32.002S1300,5291,1300,5301s-3.999,20-8.999,22.998
		c-5,3.003-32.002,52.002-61.001,108.003c-28.999,56.997-65,125.996-81.001,153.999C1087.002,5698.999,1010,5856,1010,5871
		c0,23.999,12.002,31.001,45,25C1071.001,5892.998,1186.001,5891,1310,5891z"/>
	<path fill="#AF0000" d="M2455,4547.998c-51.001-53.999-95-123.999-95-155.996c-1.001-20-20-47.002-38.999-53.003
		c-7.002-2.998-21.001-30-31.001-60c-8.999-31.001-35-80-57.002-110c-22.998-30-43.999-65-47.998-78.999s-12.002-30-17.002-37.002
		c-5-5.996-11.997-45-15-85.996c-5-64.004-2.998-81.001,17.002-120c13.999-27.002,31.001-47.002,43.999-50
		c32.002-8.003,511.997-8.003,530.005-1.001c21.992,7.998,50,65,65.996,131.997c14.004,58.003,5.996,178.003-15,227.002
		c-7.002,17.002-17.002,42.002-22.998,57.002C2760.996,4238.999,2655,4330,2634.004,4330c-6.006,0-36.006,25-67.002,55
		c-65,63.999-79.004,107.998-52.998,170c18.994,45,18.994,45,3.994,45C2512.002,4600,2482.998,4576,2455,4547.998z"/>
	<path fill="#AF0000" d="M3730,4386c-47.002-25-117.002-56.001-129.004-56.001C3595,4330,3590,4326,3590,4320
		c0-5-7.002-10-15.996-10c-9.004,0-28.008-6.001-42.002-13.999C3475.996,4267.001,3370,4220,3360.996,4220
		c-5.996,0-26.992-8.999-47.998-18.999c-20.996-11.001-65-32.002-97.998-47.002c-94.004-42.998-127.998-65-117.002-76.001
		c7.002-6.997,20-5,39.004,5c70,36.001,218.994,107.002,225.996,107.002c4.004,0,35,12.998,69.004,28.999
		c35,16.001,70,31.001,77.998,35c15,6.001,25,11.001,65,33.999c10.996,7.002,30,16.001,42.002,22.002
		c88.994,37.998,152.998,72.002,152.998,80C3770,4402.998,3760,4402.001,3730,4386z"/>
	<path fill="#AF0000" d="M1345,4331c-6.001-11.001,32.998-26.001,42.998-16.001c4.004,2.998,0,10-7.998,15
		C1361.001,4342.001,1352.998,4342.001,1345,4331z"/>
	<path fill="#AF0000" d="M1410,4300c0-10,197.002-110,217.998-110c9.004,0,51.001-18.999,92.002-42.002
		c7.998-3.999,22.002-10.996,30-13.999c7.998-3.999,52.002-25,97.998-46.997c45-22.002,86.001-37.002,90-33.003
		c10,10-35.996,46.001-57.998,46.001c-10,0-22.998,7.002-30,15s-17.998,15-25,15c-12.002,0-52.002,17.998-95,42.002
		c-7.998,3.999-22.002,10.996-30,13.999c-7.998,2.998-42.002,18.999-75,33.999c-97.998,46.001-132.002,60-147.998,60
		c-9.004,0-17.002,3.999-19.004,8.999C1452.998,4302.001,1410,4312.998,1410,4300z"/>
	<path fill="#AF0000" d="M1800,4301c0-5,7.998-12.002,17.998-15c9.004-3.999,32.002-20,51.001-36.001
		c18.999-17.002,37.002-27.998,40-25c3.003,2.998-6.997,16.001-21.001,27.998C1817.002,4311,1800,4321,1800,4301z"/>
	<path fill="#AF0000" d="M3090,4205c-7.002-8.999-10-17.998-7.002-21.001C3090,4176,3130,4197.998,3130,4210
		C3130,4225,3104.004,4222.001,3090,4205z"/>
	<path fill="#AF0000" d="M1960,4182.001c0-5,7.002-13.003,16.001-16.001c10-3.999,13.999-1.001,11.997,6.001
		C1982.998,4187.001,1960,4195,1960,4182.001z"/>
	<path fill="#AF0000" d="M3660,4140c0-6.001,10.996-7.998,27.998-3.999c39.004,10,40,13.999,4.004,13.999
		C3674.003,4150,3660,4145,3660,4140z"/>
	<path fill="#AF0000" d="M3557.998,4122.998c-10-1.997-17.998-8.999-17.998-15c0-12.998,69.004-2.998,84.004,12.002
		C3634.003,4130,3592.998,4132.001,3557.998,4122.998z"/>
	<path fill="#AF0000" d="M3410,4088.999c-14.004-6.001-47.002-15-75-20c-75-12.998-157.998-37.998-169.004-48.999
		c-17.998-17.998,56.006-11.001,149.004,16.001C3365,4050,3427.001,4065,3454.003,4070c67.998,12.998,82.998,30,25.996,28.999
		C3455,4098.999,3424.003,4093.999,3410,4088.999z"/>
	<path fill="#AF0000" d="M1740,4000c0-6.001,23.999-10,52.998-8.999c41.001,1.001,47.002,2.998,27.002,8.999
		C1783.999,4012.002,1740,4012.002,1740,4000z"/>
	<path fill="#AF0000" d="M1870,3970c0-5,12.002-10,26.001-10s22.998,3.999,18.999,10c-2.998,6.001-15,10-26.001,10
		C1878.999,3980,1870,3976.001,1870,3970z"/>
	<path fill="#AF0000" d="M3340,3900c25-3.999,74.004-3.999,110,0c59.004,7.002,55,7.002-45,7.002
		C3322.998,3907.998,3305.996,3906.001,3340,3900z"/>
	<path fill="#AF0000" d="M1670,3881.001c0-5,26.001-12.002,57.998-16.001c31.001-2.998,78.003-7.998,103.003-11.001
		c47.998-6.001,75,10,47.998,27.002C1860,3892.998,1670,3892.002,1670,3881.001z"/>
	<path fill="#AF0000" d="M3182.002,3777.998c5-15,83.994-37.998,132.998-37.998c22.002,0,55.996-5,75-11.001
		c35.996-11.001,182.002-26.997,300-33.999l65-3.999l-75,11.997c-40.996,7.002-80,16.001-87.002,20
		c-5.996,4.004-48.994,11.001-95,17.002c-45,5-102.998,13.999-127.998,18.999c-25,6.001-70.996,10-102.002,11.001
		c-30.996,0-60,5-62.998,10C3195.996,3793.999,3177.002,3792.998,3182.002,3777.998z"/>
	<path fill="#AF0000" d="M1750,3751.001c-7.998-5-42.002-11.001-73.999-13.999c-32.002-3.003-63.999-11.001-68.999-16.001
		C1601.001,3715,1580,3710,1561.001,3710c-45,0-81.001-10-81.001-21.001c0-13.999,67.002-10,107.002,6.001
		c18.999,7.998,53.999,15,76.997,15c22.002,0,53.999,7.002,70,15c15,7.998,38.003,15,50,15c11.001,0,28.003,5,36.001,10
		C1838.999,3762.002,1772.002,3762.998,1750,3751.001z"/>
	<path fill="#AF0000" d="M2277.002,3732.002c-104.004-2.002-129.004-5-134.004-18.003c-7.998-21.997,7.002-32.998,63.003-46.997
		c65-16.001,71.001-44.004,20-96.001c-86.001-88.003-88.003-240-3.003-313.003l32.002-26.997l247.002-1.001
		C2745,3230,2750,3230,2770,3252.002c39.004,42.998,70,122.998,70,183.999c0,56.001-0.996,57.998-55,111.997
		c-77.002,77.002-72.998,97.002,27.998,123.003c47.998,11.997,57.998,26.997,32.998,47.998
		C2830.996,3732.002,2545.996,3737.998,2277.002,3732.002z"/>
	<path fill="#AF0000" d="M1352.998,3662.998c15-1.997,37.002-1.997,50,0c12.002,2.002,0,4.004-27.998,4.004
		C1347.998,3667.002,1337.002,3665,1352.998,3662.998z"/>
	<path fill="#AF0000" d="M1835,3630c-2.998-5-13.999-10-23.999-10s-23.999-7.002-31.001-15s-21.001-15-31.001-15
		c-8.999,0-23.999-6.001-31.001-12.998c-6.997-8.003-25.996-17.002-40.996-21.001c-15-3.003-27.002-11.001-27.002-16.001
		c0-15,22.998-12.002,46.001,5c10,7.998,26.001,15,35,15c16.997,0,126.997,53.999,142.998,70c7.002,7.002,3.003,10-11.001,10
		C1851.001,3640,1837.998,3636.001,1835,3630z"/>
	<path fill="#AF0000" d="M3150,3631.001c0-12.002,57.002-41.001,80.996-41.001c10,0,20-3.999,23.008-8.999
		c7.998-12.002,265-141.001,281.992-141.001c24.004,0,15,15-17.998,31.001C3500,3480,3440.996,3510,3387.001,3537.998
		C3334.004,3567.002,3280.996,3590,3270,3590s-20,3.999-20,8.999c0,3.999-19.004,16.001-42.998,25
		C3157.998,3642.998,3150,3642.998,3150,3631.001z"/>
	<path fill="#AF0000" d="M1582.998,3522.998c-6.997-1.997-12.998-8.999-12.998-13.999c0-13.999,33.999-11.001,56.001,6.001
		c17.998,13.999,17.998,13.999-6.001,13.999C1606.001,3528.999,1588.999,3526.001,1582.998,3522.998z"/>
	<path fill="#AF0000" d="M1532.998,3492.002C1520,3490,1510,3483.999,1510,3478.999c0-8.999,37.002-2.998,48.999,7.002
		C1567.002,3492.998,1555,3496.001,1532.998,3492.002z"/>
	<path fill="#AF0000" d="M3140,3457.002c42.002-39.004,155.996-127.002,187.998-145c65-36.001-38.994,63.999-132.998,128.999
		c-27.002,18.999-50.996,36.997-52.998,41.997c-2.002,4.004-11.006,7.002-20,7.002C3110,3490,3115,3480,3140,3457.002z"/>
	<path fill="#AF0000" d="M3622.001,3398.999c2.002-6.997,10-15,17.002-16.997c7.998-3.003,11.992,0.996,8.994,8.999
		c-2.002,6.997-10,15-17.002,16.997C3622.998,3411.001,3619.003,3407.002,3622.001,3398.999z"/>
	<path fill="#AF0000" d="M3050,3357.002c0-7.002,7.998-20,17.998-29.004c9.004-7.998,27.002-28.999,39.004-45
		c12.002-15.996,32.998-40.996,47.002-55.996c12.998-14.004,25.996-32.002,28.994-39.004c2.002-6.997,7.998-10,12.002-5.996
		c10,10-12.002,41.997-69.004,102.998c-25,27.998-48.994,57.998-51.992,67.998C3067.998,3372.998,3050,3376.001,3050,3357.002z"/>
	<path fill="#AF0000" d="M1872.998,3280C1860,3265,1850,3247.002,1850,3241.001s-3.999-11.001-10-11.001c-5,0-10-5-10-10
		c0-17.002,33.999,10,57.998,43.999C1923.999,3317.002,1911.001,3330,1872.998,3280z"/>
	<path fill="#AF0000" d="M3380,3272.002c0-10,32.998-42.002,42.998-42.002c2.998,0,20-13.999,37.998-31.001
		c17.002-16.997,34.004-27.998,37.002-23.999c7.002,6.001-95.996,105-108.994,105C3384.004,3280,3380,3276.001,3380,3272.002z"/>
	<path fill="#AF0000" d="M2960,3251.001c0-13.003,40-81.001,47.998-81.001c4.004,0,17.998-17.002,32.002-37.998
		c27.002-40,37.998-55,57.998-77.002c6.006-7.002,12.002-17.002,12.002-20.996c0-4.004,10.996-17.002,25-30
		c14.004-13.008,25-22.002,25-20c0,10.996-32.998,65.996-40,65.996c-4.004,0-10.996,7.998-14.004,17.998
		c-6.992,17.998-16.992,36.006-75,127.002C2997.002,3248.999,2960,3277.998,2960,3251.001z"/>
	<path fill="#AF0000" d="M1785,3173.999c-22.002-33.999-15-38.999,12.998-8.999c12.002,12.998,18.003,26.001,13.003,28.999
		C1806.001,3197.002,1795,3187.998,1785,3173.999z"/>
	<path fill="#AF0000" d="M2912.998,3095c14.004-75.996,27.002-125,36.006-142.002c5-10,11.992-30,15.996-45
		c5.996-32.002,25-37.998,25-8.994c0,10-7.002,40.996-15,66.992c-7.998,27.002-17.002,65-20,85s-15,45-27.002,55
		C2907.002,3125,2907.002,3125,2912.998,3095z"/>
	<path fill="#AF0000" d="M2027.998,3072.998c-8.999-10-20-38.994-22.998-62.998c-6.001-42.002-5-44.004,8.999-25.996
		C2022.998,2995,2030,3010.996,2030,3020s5,20.996,11.001,27.002c6.001,5.996,8.999,18.994,6.997,27.998
		C2045,3090.996,2043.999,3090.996,2027.998,3072.998z"/>
	<path fill="#AF0000" d="M4005,3054.004c-9.004-15-37.002-47.002-60.996-72.002c-24.004-24.004-61.006-65-81.006-90
		c-20.996-25-50.996-60-67.998-77.002c-29.004-30-95-105-335.996-380c-62.002-70.996-119.004-135.996-126.006-142.998
		c-7.002-7.998-10.996-17.002-8.994-21.006c2.998-3.994,96.992-5.996,210-3.994L3740,2270l5-22.998
		c4.004-12.998,0.996-50-4.004-82.002c-30.996-170-40.996-217.998-51.992-230.996c-23.008-28.008-33.008-19.004-95,86.992
		c-28.008,49.004-45,58.008-105,58.008c-32.002,0-61.006-4.004-63.008-8.008c-1.992-2.998,20-50.996,51.006-105.996
		c30-55,70.996-129.004,90.996-165c19.004-35.996,46.006-82.002,59.004-102.002c12.002-20.996,22.998-40.996,22.998-45
		c0-2.998,5.996-13.994,14.004-22.002c7.998-8.994,26.992-40,42.998-70c37.002-67.998,52.998-75.996,52.998-23.994
		c0,20.996,9.004,78.994,19.004,127.998c10.996,50,26.992,135,35.996,190s20.996,117.998,27.002,140
		c5.996,22.002,13.994,62.998,17.998,90c5,27.998,15.996,90.996,25,140c9.004,50,19.004,105,22.002,122.002l5,32.002l-147.998,2.998
		c-172.002,2.998-181.006,8.994-117.002,75c20.996,20.996,63.994,68.994,95.996,105.996c36.006,42.002,66.006,67.002,79.004,67.002
		c18.994,0,18.994-4.004,12.998-60l-7.002-60h51.006c60,0,62.998,4.004,80.996,110c7.002,40.996,17.998,102.002,25.996,135
		c17.002,75,33.008,155,44.004,220c4.004,27.998,10.996,62.002,15,77.998C4055,3089.004,4029.003,3090,4005,3054.004z"/>
	<path fill="#AF0000" d="M1043.999,2987.998c8.999-60.996,33.999-177.998,62.002-292.998c7.998-32.998,18.999-85,23.999-115
		c6.001-30,17.002-82.002,25-115c7.002-32.998,21.001-95.996,30-140s21.001-95.996,26.001-115s13.999-55,18.999-80
		c37.002-179.004,52.002-257.998,67.998-350c13.003-74.004,22.002-105,32.002-105c12.002,0,38.999,35.996,56.001,75
		c11.001,24.004,196.997,335,203.999,340c3.999,2.998,8.999,12.002,12.998,20c4.004,7.998,14.004,25,23.003,37.002
		c15,20,12.998,23.994-22.002,62.998c-58.999,65-67.998,67.002-93.999,17.998c-41.001-78.994-85-138.994-100-135.996
		s-27.998,43.994-70,232.998c-12.998,55-27.002,107.998-32.002,117.998c-11.997,22.998-0.996,57.002,19.004,57.002
		c8.999,0,40.996-27.002,70-60c30-32.998,60-60,65.996-60c12.002,0.996,87.002,90.996,87.002,105
		c0,9.004-152.002,177.002-323.999,357.998c-83.003,87.002-155,165-158.999,172.998C1050,3045.996,1037.002,3030,1043.999,2987.998z
		"/>
	<path fill="#AF0000" d="M1982.002,2920c0-19.004,1.997-27.002,5-17.002c1.997,9.004,1.997,25,0,35
		C1983.999,2947.002,1982.002,2939.004,1982.002,2920z"/>
	<path fill="#AF0000" d="M2850,2157.998c-0.996-2.002-2.998-115-5-252.998c-2.998-137.002-7.002-319.004-10-402.002L2830,1350
		h330.996c182.002,0,329.004,2.998,327.002,7.998c-23.994,55-122.998,239.004-132.002,245c-5.996,4.004-37.998,6.006-70.996,5
		c-52.998-2.998-60-5-57.002-22.002c2.002-10,12.998-30.996,24.004-46.992c40.996-55,8.994-69.004-151.006-69.004
		c-110.996,0-146.992,15-136.992,55c2.998,12.998,10.996,155,15.996,315.996c7.998,217.002,7.002,295-0.996,305
		c-7.002,9.004-33.008,14.004-70,14.004C2875.996,2160,2850,2159.004,2850,2157.998z"/>
	<path fill="#AF0000" d="M1892.998,2072.998C1871.001,2030,1835,1959.004,1812.002,1915c-48.003-95-92.002-189.004-92.002-197.998
		c0-4.004,72.998-7.002,162.998-7.002c113.003,0,167.002-4.004,175-12.002c17.002-17.002,16.001-222.002,0-235.996
		c-12.998-10-238.999-15-270-6.006c-22.998,7.002-22.998,45-1.997,85c23.999,47.002,12.998,59.004-53.003,59.004
		c-31.997,0-63.999-4.004-70-7.998c-21.997-14.004-131.997-240-120-245C1550,1345,1701.001,1345,1880,1345.996l325,2.002
		l-2.998,117.998C2200,1532.002,2195,1602.998,2190,1625s-10,72.998-10,112.998c0,50-3.999,72.998-12.002,74.004
		c-6.997,0.996-60,2.002-117.998,2.002c-105,0.996-105,0.996-107.998,26.992c-2.002,14.004,10.996,55,26.997,92.002
		c33.003,74.004,50,84.004,125,72.998c58.003-8.994,68.003,4.004,58.003,80L2145,2145l-106.001,2.998l-106.001,2.998
		L1892.998,2072.998z"/>
	<text transform="matrix(9.7998 0.0697 0.0725 -10.1997 1336.4891 5353.1245)"><tspan x="0" y="0" fill="#AF0000" font-family="'SegoeUIBlack'" font-size="46">NATIONAL</tspan><tspan x="-64.234" y="57.843" fill="#AF0000" font-family="'SegoeUIBlack'" font-size="46">HONOR SOCIETY</tspan></text>
</g>
</svg>
